<svg width="75" height="75" viewBox="0 0 79 80" fill="none" xmlns="http://www.w3.org/2000/svg">
    <g filter="url(#filter0_d)">
        <circle cx="39.5" cy="39.5" r="37.5" fill="white"/>
        <circle cx="39.5" cy="39.5" r="37.5" stroke="#83D7D1"/>
    </g>
    <rect x="42.1785" y="64.8245" width="13.8799" height="2.92208" fill="#83D7D1"/>
    <path d="M56.0583 67.8683V64.8245H42.1785V67.8683" stroke="#BBBBBB" stroke-width="1.46104" stroke-linecap="round"
          stroke-linejoin="round"/>
    <path d="M43.6394 62.3894V54.7535C43.6394 54.1077 43.896 53.4883 44.3526 53.0317L53.6232 43.7611C54.4754 43.0306 56.5927 42.9854 57.5193 44.0046C58.7368 45.3439 58.6151 46.9267 58.0063 47.6572L51.4316 54.2319"
          stroke="#BBBBBB" stroke-width="1.46104" stroke-linecap="round" stroke-linejoin="round"/>
    <path d="M54.719 62.2677V60.4414L62.9982 52.1622C63.8911 51.0664 65.6768 48.1444 65.6768 45.2223C65.6768 42.3002 65.6768 32.6817 65.6768 28.2986C65.6768 27.0811 64.4218 25.8635 62.9982 25.8635C61.4154 25.8635 60.2222 27.0811 60.2222 28.2986V41.3262"
          stroke="#BBBBBB" stroke-width="1.46104" stroke-linecap="round" stroke-linejoin="round"/>
    <rect x="22.698" y="64.8245" width="13.8799" height="2.92208" fill="#83D7D1"/>
    <path d="M22.8198 67.8683V64.8245H36.6997V67.8683" stroke="#BBBBBB" stroke-width="1.46104" stroke-linecap="round"
          stroke-linejoin="round"/>
    <path d="M35.2385 62.3894V54.7535C35.2385 54.1077 34.982 53.4883 34.5253 53.0317L25.2548 43.7611C24.4025 43.0306 22.2852 42.9854 21.3587 44.0046C20.1411 45.3439 20.2629 46.9267 20.8716 47.6572L27.4463 54.2319"
          stroke="#BBBBBB" stroke-width="1.46104" stroke-linecap="round" stroke-linejoin="round"/>
    <path d="M24.1589 62.2677V60.4414L15.8797 52.1622C14.9869 51.0664 13.2011 48.1444 13.2011 45.2223C13.2011 42.3002 13.2011 32.6817 13.2011 28.2986C13.2011 27.0811 14.4561 25.8635 15.8797 25.8635C17.4625 25.8635 18.6557 27.0811 18.6557 28.2986V41.3262"
          stroke="#BBBBBB" stroke-width="1.46104" stroke-linecap="round" stroke-linejoin="round"/>
    <path d="M34.3182 35.3102L34.3203 35.3109C35.6768 35.7434 37.0919 35.9595 38.5651 35.9595C40.0589 35.9595 41.3905 35.7137 42.5574 35.2193C43.7237 34.7251 44.6292 34.0305 45.2676 33.1331C45.9264 32.2345 46.255 31.1961 46.255 30.0228C46.255 28.7914 45.9068 27.7949 45.1996 27.0469C44.5226 26.3105 43.6678 25.7646 42.6384 25.4081C41.6192 25.0358 40.2216 24.6353 38.4476 24.2064L38.4472 24.2063C36.8164 23.818 35.6148 23.374 34.833 22.8787C34.092 22.3779 33.7193 21.639 33.7193 20.6429C33.7193 19.47 34.1519 18.5729 35.014 17.9356L35.0141 17.9356L35.0154 17.9346C35.8828 17.2746 37.1097 16.9367 38.7112 16.9367C39.8501 16.9367 40.8184 17.0912 41.6191 17.3963C42.4213 17.7019 43.2963 18.2391 44.2446 19.0132L44.251 19.0184L44.2581 19.0228C44.6131 19.2398 44.9197 19.3621 45.169 19.3621C45.4265 19.3621 45.6445 19.2425 45.8192 19.0242L45.8193 19.0242L45.8226 19.0197C45.9941 18.784 46.0797 18.5152 46.0797 18.2176C46.0797 17.8091 45.9063 17.4386 45.5765 17.1088L45.5765 17.1088L45.5754 17.1077C44.7625 16.3147 43.7533 15.7119 42.5506 15.2977C41.3675 14.864 40.0873 14.6478 38.7112 14.6478C37.2361 14.6478 35.914 14.9035 34.7469 15.4177C33.5987 15.9127 32.6938 16.6275 32.0368 17.5632L32.0365 17.5636C31.3979 18.4816 31.0797 19.5387 31.0797 20.7306C31.0797 21.9788 31.397 23.0018 32.0424 23.7883L32.0423 23.7883L32.0435 23.7897C32.7004 24.566 33.5452 25.1615 34.5747 25.5772L34.5754 25.5775C35.6155 25.9896 36.9368 26.3809 38.5376 26.7518L38.5378 26.7518C39.7239 27.0241 40.6634 27.2858 41.3581 27.5366C42.0464 27.7852 42.5948 28.1176 43.0082 28.5309L43.0082 28.531L43.0102 28.5329C43.411 28.9155 43.6154 29.4272 43.6154 30.0812C43.6154 31.2339 43.1834 32.1111 42.322 32.729C41.4548 33.3512 40.1981 33.6705 38.5358 33.6705C36.2443 33.6705 34.2056 32.978 32.4156 31.5921L32.4156 31.5921L32.413 31.5902C32.1086 31.3669 31.811 31.2452 31.5228 31.2452C31.2612 31.2452 31.0433 31.3784 30.8708 31.6145C30.6973 31.8325 30.6121 32.093 30.6121 32.3897C30.6121 32.8316 30.7716 33.205 31.0891 33.5014L31.0894 33.5017C31.9038 34.2564 32.9818 34.8581 34.3182 35.3102Z"
          fill="#83D7D1" stroke="#83D7D1" stroke-width="0.243506"/>
    <path d="M38.9451 12.2273L38.9451 39.2565" stroke="#83D7D1" stroke-width="1.94805" stroke-linecap="round"/>
    <defs>
        <filter id="filter0_d" x="0.0389612" y="0.525974" width="78.9221" height="78.9221" filterUnits="userSpaceOnUse"
                color-interpolation-filters="sRGB">
            <feFlood flood-opacity="0" result="BackgroundImageFix"/>
            <feColorMatrix in="SourceAlpha" type="matrix" values="0 0 0 0 0 0 0 0 0 0 0 0 0 0 0 0 0 0 127 0"/>
            <feOffset dy="0.487013"/>
            <feGaussianBlur stdDeviation="0.730519"/>
            <feColorMatrix type="matrix" values="0 0 0 0 0 0 0 0 0 0 0 0 0 0 0 0 0 0 0.15 0"/>
            <feBlend mode="normal" in2="BackgroundImageFix" result="effect1_dropShadow"/>
            <feBlend mode="normal" in="SourceGraphic" in2="effect1_dropShadow" result="shape"/>
        </filter>
    </defs>
</svg>
